<svg id="Camada_1" data-name="Camada 1" xmlns="http://www.w3.org/2000/svg" viewBox="0 0 1031.79 1031.79"><defs><style>.cls-1{font-size:150.72px;font-family:Montserrat-Bold, Montserrat;font-weight:700;letter-spacing:-0.06em;}.cls-1,.cls-5,.cls-6{fill:#8bc53f;}.cls-2{letter-spacing:-0.06em;}.cls-3{letter-spacing:-0.06em;}.cls-4{letter-spacing:-0.05em;}.cls-5{font-size:104.42px;font-family:Montserrat-Light, Montserrat;font-weight:300;letter-spacing:0.2em;}</style></defs><title>NaturalizandoTuVida</title><text class="cls-1" transform="translate(11.53 726.65)">Natu<tspan class="cls-2" x="349.51" y="0">r</tspan><tspan class="cls-3" x="404.82" y="0">aliza</tspan><tspan class="cls-4" x="720.41" y="0">n</tspan><tspan x="816.87" y="0">do</tspan></text><text class="cls-5" transform="translate(301.15 814.54)">tu vida</text><path class="cls-6" d="M602.43,458.93H528.49V385H489.81a18.5,18.5,0,0,0-18.5,18.5v55.44H415.87a18.51,18.51,0,0,0-18.51,18.5v38.68h73.95v73.95H510a18.51,18.51,0,0,0,18.5-18.51V516.11h55.44a18.5,18.5,0,0,0,18.5-18.5Z"/><path class="cls-6" d="M739.45,370.4a130.28,130.28,0,0,0-39.78-56.71,141.67,141.67,0,0,0-14.23-10.4l-7.65-4.47c-2.69-1.42-5.59-2.74-8.4-4.08l-2.11-1-1.86-.72-3.71-1.41-1.86-.71-.93-.35-.78-.28-.27-.07-.53-.16-4.26-1.24a78.3,78.3,0,0,0-8.59-2.18c-2.9-.55-5.77-1.32-8.7-1.62-23.38-3.71-47.24-.86-69.38,6.32a155,155,0,0,0-31.76,14.52,166,166,0,0,0-15.83,10.79A183.71,183.71,0,0,0,471.75,280a163.91,163.91,0,0,0-35.25-14.24c-3.06-.89-6.21-1.5-9.31-2.25s-6.58-1.18-9.86-1.74l-9.14-1c-3.22-.15-6.44-.38-9.66-.43A145.94,145.94,0,0,0,360.46,265,143.49,143.49,0,0,0,325,279.4a133.34,133.34,0,0,0-30.27,23.72c-2.26,2.44-4.49,5.1-6.69,7.66l-2.56,3.51L284.19,316l-.64.88-.6.82-.32.52-5.08,8.22-4.38,8.58c-10.76,23.33-14.06,49-11.75,73.55a170.74,170.74,0,0,0,7.61,36,180.33,180.33,0,0,0,6.65,17.22l3.88,8.06,4.33,7.95A210,210,0,0,0,304.71,507a240.63,240.63,0,0,0,24.8,25.36,331.58,331.58,0,0,0,57.18,40.3c-18.28-14.31-35.74-29.53-51.1-46.47a270.25,270.25,0,0,1-21.31-26.54,203.13,203.13,0,0,1-16.91-29l-3.43-7.59-3.09-7.86c-1.82-5.2-3.38-10.16-4.71-15.58a152,152,0,0,1-4.4-32.34,137.53,137.53,0,0,1,2.59-32,111.45,111.45,0,0,1,10.47-29.56l3.88-6.71,4.4-6.33,5.13-6.33,5-5.2a106.84,106.84,0,0,1,24.95-18A120.88,120.88,0,0,1,398,289.26c2.56.09,5.12.33,7.68.47l8.1,1.06c2.41.5,4.75.87,7.22,1.43s5.06,1.18,7.55,2a146,146,0,0,1,28.88,12.07,159.06,159.06,0,0,1,47.81,40.86l10.3,13,12-11.4a136.42,136.42,0,0,1,48.38-29.45c18-6.12,37.36-8.75,56-6.35,2.36.15,4.63.74,7,1.11a55.29,55.29,0,0,1,6.86,1.54l3.4.87.43.11.21.06s0,0,0,0l.62.21,1.88.66,3.75,1.31,1.88.65,1.51.67,6,2.66,6.21,3.32A116.54,116.54,0,0,1,683.33,334a121.61,121.61,0,0,1,20.27,20A104.93,104.93,0,0,1,718,378.59a96.24,96.24,0,0,1,7,27.46l.31,7.09,0,.89v.11c0,.11,0-.55,0-.21v.25l0,.49-.07,2-.12,4a103.67,103.67,0,0,1-1.89,14,118.39,118.39,0,0,1-9.53,27.95A168.76,168.76,0,0,1,698,488.45c-12.08,16.43-27.47,30.63-43.87,43.66s-34.22,24.72-51.77,36.71c19.14-9.21,38.18-18.73,56.39-30.13s35.52-24.79,50.32-41.22a162.23,162.23,0,0,0,19.5-27,136.49,136.49,0,0,0,13.28-31.24A123.62,123.62,0,0,0,745.43,422l.41-4,.19-2,0-.49,0-.84,0-1.1.08-8.81A118.23,118.23,0,0,0,739.45,370.4Z"/></svg>