<svg id="Camada_1" data-name="Camada 1" xmlns="http://www.w3.org/2000/svg" viewBox="0 0 517.79 401.36"><defs><style>.cls-1{fill:#8bc53f;}</style></defs><title>NaturalizandoTuVida</title><path class="cls-1" d="M358.52,215H284.57V141.09H245.89a18.5,18.5,0,0,0-18.5,18.5V215H172a18.5,18.5,0,0,0-18.5,18.5v38.68h73.94v73.94h38.68a18.5,18.5,0,0,0,18.5-18.5V272.21H340a18.5,18.5,0,0,0,18.5-18.5Z"/><path class="cls-1" d="M495.54,126.49a130.27,130.27,0,0,0-39.79-56.7,141.54,141.54,0,0,0-14.22-10.4l-7.65-4.47c-2.7-1.42-5.59-2.74-8.41-4.09l-2.11-1-1.85-.72-3.72-1.41L415.94,47l-.93-.36-.79-.27-.26-.08-.54-.15-4.26-1.24a77.17,77.17,0,0,0-8.59-2.18c-2.89-.55-5.77-1.32-8.7-1.62-23.37-3.71-47.24-.86-69.37,6.32A154.19,154.19,0,0,0,290.74,62a164.74,164.74,0,0,0-15.83,10.79,183.67,183.67,0,0,0-47.07-36.7,163.79,163.79,0,0,0-35.26-14.24c-3.06-.89-6.2-1.5-9.3-2.25s-6.58-1.18-9.86-1.75l-9.14-1c-3.22-.15-6.44-.38-9.66-.43a146.06,146.06,0,0,0-38.08,4.73A143,143,0,0,0,81.08,35.5,132.9,132.9,0,0,0,50.81,59.22c-2.27,2.44-4.49,5.1-6.69,7.66l-2.56,3.51-1.29,1.75-.64.88-.6.82-.32.51-5.08,8.23-4.37,8.58c-10.76,23.33-14.07,49-11.76,73.55a172.14,172.14,0,0,0,7.61,36,184.1,184.1,0,0,0,6.65,17.22L35.64,226l4.33,8A210.91,210.91,0,0,0,60.8,263.12a241.52,241.52,0,0,0,24.79,25.36,331.65,331.65,0,0,0,57.19,40.3c-18.29-14.31-35.74-29.54-51.1-46.47a268.89,268.89,0,0,1-21.32-26.54,204.57,204.57,0,0,1-16.9-29L50,219.16l-3.09-7.86c-1.82-5.2-3.37-10.16-4.71-15.58a152.72,152.72,0,0,1-4.4-32.34,137,137,0,0,1,2.6-32,111,111,0,0,1,10.47-29.56l3.88-6.71,4.4-6.34,5.13-6.33,5-5.2a106.88,106.88,0,0,1,25-18A120.84,120.84,0,0,1,154,45.36c2.57.09,5.12.33,7.68.47l8.11,1.05c2.41.51,4.74.88,7.22,1.44s5.06,1.18,7.54,2a146.06,146.06,0,0,1,28.89,12.07,159.18,159.18,0,0,1,47.81,40.86l10.29,13,12-11.4A136.35,136.35,0,0,1,332,75.39c18-6.12,37.36-8.75,56-6.35,2.36.15,4.63.74,6.95,1.1a57.16,57.16,0,0,1,6.86,1.54l3.4.88.43.11.21,0h0l.62.22,1.88.66,3.75,1.31,1.88.65,1.5.67,6,2.66,6.21,3.32a115.41,115.41,0,0,1,11.73,7.93,121.56,121.56,0,0,1,20.27,20,105,105,0,0,1,14.41,24.58,95.81,95.81,0,0,1,7,27.46l.31,7.09.05.89v.11c0,.1,0-.55,0-.21v.25l0,.49-.07,2-.12,4a105.28,105.28,0,0,1-1.89,14,118.39,118.39,0,0,1-9.53,28,168.19,168.19,0,0,1-15.71,25.83C442,261,426.62,275.18,410.22,288.21S376,312.93,358.45,324.92c19.15-9.21,38.19-18.74,56.4-30.13s35.52-24.79,50.32-41.22a163.3,163.3,0,0,0,19.5-27,136.28,136.28,0,0,0,13.27-31.24,120.38,120.38,0,0,0,3.57-17.25l.42-4,.18-2,.05-.49,0-.84v-1.1l.08-8.82A118.35,118.35,0,0,0,495.54,126.49Z"/></svg>